<svg width="220" height="160" viewBox="0 0 220 160" fill="none" xmlns="http://www.w3.org/2000/svg">
  <rect x="25" y="15" width="160" height="120" rx="14" fill="#e5d9f5"/>
  <rect x="25" y="15" width="160" height="34" rx="14" fill="#d4c5f0"/>
  <rect x="37" y="28" width="8" height="8" rx="2" fill="#c4b5fd"/>
  <rect x="50" y="30" width="50" height="4" rx="2" fill="#a78bfa"/>
  <line x1="39" y1="41" x2="170" y2="41" stroke="#c4b5fd" strokeWidth="1" opacity="0.5"/>
  <circle cx="155" cy="32" r="6" fill="#8b5cf6" opacity="0.3"/>
  <circle cx="155" cy="32" r="3" fill="#8b5cf6"/>
  <!-- Chart bars -->
  <rect x="42" y="82" width="12" height="28" rx="3" fill="#ddd6fe"/>
  <rect x="60" y="70" width="12" height="40" rx="3" fill="#c4b5fd"/>
  <rect x="78" y="62" width="12" height="48" rx="3" fill="#a78bfa"/>
  <rect x="96" y="74" width="12" height="36" rx="3" fill="#8b5cf6"/>
  <rect x="114" y="88" width="12" height="22" rx="3" fill="#c4b5fd"/>
  <rect x="132" y="78" width="12" height="32" rx="3" fill="#ddd6fe"/>
  <!-- Chart line -->
  <polyline points="48,88 66,72 84,60 102,78 120,92 138,76" stroke="#7c3aed" strokeWidth="1.5" fill="none" strokeLinecap="round" strokeLinejoin="round"/>
  <!-- Shield icon -->
  <circle cx="175" cy="85" r="16" fill="#f0eaf8"/>
  <path d="M170 86l4 4 6-6" stroke="#8b5cf6" strokeWidth="2" strokeLinecap="round" strokeLinejoin="round"/>
  <path d="M169 82l6 1 4-4-3-2-7 5z" fill="#c4b5fd" opacity="0.5"/>
  <!-- Small dots -->
  <circle cx="190" cy="50" r="4" fill="#e5d9f5"/>
  <circle cx="192" cy="48" r="2" fill="#8b5cf6" opacity="0.5"/>
</svg>
